<svg width="373" height="100" viewBox="0 0 373 100" fill="none" xmlns="http://www.w3.org/2000/svg">
<g clip-path="url(#clip0_20_2)">
<path d="M212.6 8.95C212.6 3.85 216.46 0 221.55 0C226.64 0 230.37 3.86 230.37 8.95C230.37 14.04 226.51 17.9 221.55 17.9C216.59 17.9 212.6 13.91 212.6 8.95ZM215.08 28.79H227.89V97.67H215.08V28.79Z" fill="#D1FF3B"/>
<path d="M342.01 52.76V97.67H329.2V55.1C329.2 45.46 325.07 38.84 316.8 38.84C306.33 38.84 298.89 48.9 298.89 64.19V97.67H286.08V55.1C286.08 45.32 281.95 38.71 273.54 38.71C263.07 38.71 255.63 48.77 255.63 64.33V97.67H242.82V28.79H255.63V40.91C259.21 33.33 266.65 27 277.53 27C287.72 27 294.89 32.79 297.64 41.88C301.77 32.65 310.31 27 320.65 27C334.7 27 342 37.06 342 52.76H342.01Z" fill="#D1FF3B"/>
<path d="M354.52 8.95C354.52 3.85 358.38 0 363.47 0C368.56 0 372.29 3.86 372.29 8.95C372.29 14.04 368.43 17.9 363.47 17.9C358.51 17.9 354.52 13.91 354.52 8.95ZM357 28.79H369.81V97.67H357V28.79Z" fill="#D1FF3B"/>
<path d="M132.14 76.82C128.12 91.11 117.36 100 100.84 100C79.74 100 67.46 85.43 67.46 63.5C67.46 41.57 79.47 27 100.98 27C123.47 27 135.12 44.05 133.64 67.66H81.2C82.59 80.71 88.91 88.48 100.84 88.48C109.72 88.48 115.48 84.04 118.12 76.82H132.14ZM81.48 57.11H119.78C118.32 45.21 111.77 38.24 100.98 38.24C89.46 38.24 83.28 45.18 81.48 57.11Z" fill="#D1FF3B"/>
<path d="M14.25 47.66C14.25 41.6 20.72 37.6 29.27 37.6C37.82 37.6 44.43 41.76 45.27 48.12H57.88C57.89 35.81 45.93 27 29.54 27C13.15 27 1.03 35.4 1.03 48.77C1.03 74.12 46.21 63.37 46.21 79.21C46.21 85.13 40.01 88.85 30.51 88.85C20.1 88.85 13.48 84.19 12.44 76.82H0C0.92 91.25 13.08 99.46 30.37 99.46C47.66 99.46 59.3 91.47 59.3 78.11C59.3 52.07 14.25 63.09 14.25 47.67V47.66Z" fill="#D1FF3B"/>
<path d="M156.67 47.66C156.67 41.6 163.15 37.6 171.69 37.6C180.23 37.6 186.85 41.76 187.69 48.12H200.3C200.31 35.81 188.35 27 171.96 27C155.57 27 143.44 35.4 143.44 48.77C143.44 74.12 188.63 63.37 188.63 79.21C188.63 85.13 182.43 88.85 172.93 88.85C162.52 88.85 155.9 84.19 154.86 76.82H142.43C143.35 91.25 155.51 99.46 172.8 99.46C190.09 99.46 201.73 91.47 201.73 78.11C201.73 52.07 156.68 63.09 156.68 47.67L156.67 47.66Z" fill="#D1FF3B"/>
</g>
<defs>
<clipPath id="clip0_20_2">
<rect width="372.29" height="100" fill="white"/>
</clipPath>
</defs>
</svg>
