<?xml version="1.0" encoding="UTF-8"?><svg id="Layer_1" xmlns="http://www.w3.org/2000/svg" viewBox="0 0 283.46 92.85"><defs><style>.cls-1{fill:#544ae5;}</style></defs><path class="cls-1" d="M268.29,16.69C240.54,10.78,149.61-3.39,130.13,.74,107.1,6.06,10.27,40.89,9.68,41.48c-2.36,1.18-8.27,3.54-7.68,10.04,.59,4.72,.59,8.86-1.18,12.99-1.18,2.95-1.18,5.9,.59,8.27,2.95,4.72,10.63,7.09,14.76,7.09h20.67c-1.18-3.54-1.77-7.68-1.77-11.81,0-20.67,16.53-37.2,37.2-37.2s37.2,16.53,37.2,37.2c0,4.13-.59,8.27-1.77,11.81h86.79c-1.18-3.54-1.77-7.68-1.77-11.81,0-20.67,16.53-37.2,37.2-37.2s37.2,16.53,37.2,37.2c1.77-.59,2.95-1.77,4.13-2.36,4.13-1.77,7.09-5.31,8.86-9.45,6.49-17.12,4.13-36.02-11.81-39.56ZM90.57,25.54c19.48-6.49,36.61-11.81,41.92-12.99s20.67,0,39.56,1.77c-15.35,8.27-45.46,19.48-81.48,11.22Z"/><circle class="cls-1" cx="229.91" cy="67.46" r="25.39"/><circle class="cls-1" cx="72.27" cy="67.46" r="25.39"/></svg>